<?xml version="1.0" standalone="no"?>
<!DOCTYPE svg PUBLIC "-//W3C//DTD SVG 20010904//EN"
 "http://www.w3.org/TR/2001/REC-SVG-20010904/DTD/svg10.dtd">
<svg version="1.0" xmlns="http://www.w3.org/2000/svg"
 width="256.000000pt" height="256.000000pt" viewBox="0 0 64.000000 64.000000"
 preserveAspectRatio="xMidYMid meet">

<g transform="translate(0.000000,64.000000) scale(0.100000,-0.100000)"
fill="#5540af" stroke="none">
<path d="M440 599 c0 -18 -2 -20 -16 -9 -13 11 -19 9 -42 -13 -28 -29 -23 -50
6 -24 11 10 26 14 40 10 18 -4 24 -1 29 16 7 27 39 27 46 0 4 -15 12 -19 34
-17 25 3 28 0 25 -25 -2 -22 2 -30 17 -34 12 -3 21 -13 21 -23 0 -10 -9 -20
-21 -23 -15 -4 -19 -12 -17 -34 3 -25 0 -28 -27 -28 -25 0 -30 -4 -33 -27 -2
-16 1 -28 7 -28 6 0 11 9 11 20 0 18 2 19 20 8 16 -10 20 -24 20 -68 0 -31 -5
-61 -12 -68 -14 -14 -108 -16 -108 -2 0 6 -18 10 -40 10 -22 0 -40 5 -40 10 0
6 27 10 60 10 l60 0 0 130 0 130 -45 0 c-25 0 -45 -4 -45 -10 0 -5 16 -10 35
-10 32 0 35 -2 35 -30 l0 -30 -130 0 -130 0 0 30 0 30 85 0 c50 0 85 4 85 10
0 6 -38 10 -95 10 l-95 0 0 -130 0 -130 30 0 c17 0 30 5 30 10 0 6 -9 10 -20
10 -16 0 -20 7 -20 30 l0 30 130 0 130 0 0 -30 0 -30 -100 0 c-60 0 -100 -4
-100 -10 0 -5 9 -10 20 -10 11 0 20 -4 20 -10 0 -5 -16 -10 -35 -10 -19 0 -35
-4 -35 -10 0 -5 -9 -10 -20 -10 -11 0 -20 -4 -20 -10 0 -5 9 -10 20 -10 11 0
20 -4 20 -10 0 -6 42 -10 105 -10 63 0 105 4 105 10 0 6 22 10 49 10 28 0 53
-4 56 -10 10 -16 45 -12 52 6 3 9 1 25 -5 35 -15 24 -15 152 0 167 8 8 8 15
-2 27 -10 13 -9 15 9 15 18 0 21 6 21 40 0 34 -3 40 -21 40 -18 0 -20 2 -9 16
11 13 9 19 -13 41 -22 22 -28 24 -41 13 -14 -11 -16 -9 -16 9 0 18 -6 21 -40
21 -34 0 -40 -3 -40 -21z m20 -209 l0 -30 -130 0 -130 0 0 30 0 30 130 0 130
0 0 -30z m-120 -150 c0 -17 7 -20 40 -20 22 0 40 -4 40 -10 0 -6 -35 -10 -85
-10 -50 0 -85 4 -85 10 0 6 16 10 35 10 28 0 35 4 35 20 0 11 5 20 10 20 6 0
10 -9 10 -20z m240 -30 c0 -5 -4 -10 -10 -10 -5 0 -10 5 -10 10 0 6 5 10 10
10 6 0 10 -4 10 -10z"/>
<path d="M220 390 c0 -5 18 -10 40 -10 22 0 40 5 40 10 0 6 -18 10 -40 10 -22
0 -40 -4 -40 -10z"/>
<path d="M330 390 c0 -5 5 -10 10 -10 6 0 10 5 10 10 0 6 -4 10 -10 10 -5 0
-10 -4 -10 -10z"/>
<path d="M370 390 c0 -5 5 -10 10 -10 6 0 10 5 10 10 0 6 -4 10 -10 10 -5 0
-10 -4 -10 -10z"/>
<path d="M410 390 c0 -5 5 -10 10 -10 6 0 10 5 10 10 0 6 -4 10 -10 10 -5 0
-10 -4 -10 -10z"/>
<path d="M500 525 c0 -3 6 -14 12 -25 10 -16 10 -24 0 -41 -17 -27 -5 -40 14
-15 17 23 18 40 4 67 -10 17 -30 27 -30 14z"/>
<path d="M220 470 c0 -5 18 -10 40 -10 22 0 40 5 40 10 0 6 -18 10 -40 10 -22
0 -40 -4 -40 -10z"/>
<path d="M330 470 c0 -5 5 -10 10 -10 6 0 10 5 10 10 0 6 -4 10 -10 10 -5 0
-10 -4 -10 -10z"/>
<path d="M370 470 c0 -5 5 -10 10 -10 6 0 10 5 10 10 0 6 -4 10 -10 10 -5 0
-10 -4 -10 -10z"/>
<path d="M410 470 c0 -5 5 -10 10 -10 6 0 10 5 10 10 0 6 -4 10 -10 10 -5 0
-10 -4 -10 -10z"/>
<path d="M82 397 c-36 -37 -39 -49 -17 -67 19 -16 10 -30 -21 -30 -23 0 -24
-3 -24 -60 0 -57 1 -60 24 -60 31 0 40 -14 21 -30 -22 -18 -19 -33 18 -68 37
-36 49 -39 67 -17 16 19 30 10 30 -21 0 -23 3 -24 60 -24 57 0 60 1 60 24 0
31 14 40 30 21 18 -22 33 -19 68 18 36 37 39 49 17 67 -19 16 -34 5 -17 -12 9
-9 6 -18 -15 -40 -24 -25 -28 -26 -43 -13 -23 21 -60 8 -60 -21 0 -21 -5 -24
-40 -24 -35 0 -40 3 -40 24 0 29 -37 42 -60 21 -15 -13 -19 -12 -43 13 -24 24
-25 30 -12 43 22 21 8 59 -21 59 -21 0 -24 5 -24 40 0 35 3 40 24 40 29 0 42
37 21 60 -13 15 -12 19 13 43 22 21 31 24 40 15 17 -17 28 -2 12 17 -19 22
-33 19 -68 -18z"/>
<path d="M220 310 c0 -5 18 -10 40 -10 22 0 40 5 40 10 0 6 -18 10 -40 10 -22
0 -40 -4 -40 -10z"/>
<path d="M330 310 c0 -5 5 -10 10 -10 6 0 10 5 10 10 0 6 -4 10 -10 10 -5 0
-10 -4 -10 -10z"/>
<path d="M370 310 c0 -5 5 -10 10 -10 6 0 10 5 10 10 0 6 -4 10 -10 10 -5 0
-10 -4 -10 -10z"/>
<path d="M410 310 c0 -5 5 -10 10 -10 6 0 10 5 10 10 0 6 -4 10 -10 10 -5 0
-10 -4 -10 -10z"/>
<path d="M145 213 c14 -58 80 -96 134 -78 36 11 23 23 -19 18 -34 -5 -43 -2
-70 25 -16 17 -30 38 -30 46 0 9 -5 16 -11 16 -7 0 -9 -10 -4 -27z"/>
</g>
</svg>
