<?xml version="1.0" standalone="no"?>
<!DOCTYPE svg PUBLIC "-//W3C//DTD SVG 20010904//EN"
 "http://www.w3.org/TR/2001/REC-SVG-20010904/DTD/svg10.dtd">
<svg version="1.0" xmlns="http://www.w3.org/2000/svg"
 width="728.000000pt" height="508.000000pt" viewBox="0 0 728.000000 508.000000"
 preserveAspectRatio="xMidYMid meet">

<g transform="translate(0.000000,508.000000) scale(0.100000,-0.100000)"
fill="#5540af" stroke="none">
<path d="M2430 5004 c-30 -2 -122 -11 -205 -19 -565 -58 -994 -227 -1110 -436
l-30 -54 0 -300 0 -300 27 -46 c158 -268 793 -459 1529 -459 201 0 199 -1 199
54 0 49 70 168 138 235 82 82 133 118 259 180 171 85 321 133 565 181 122 25
366 60 416 60 16 0 17 331 1 393 -25 100 -131 198 -304 282 -221 107 -472 171
-825 210 -132 15 -550 27 -660 19z"/>
<path d="M4425 3889 c-490 -21 -931 -130 -1172 -289 -96 -63 -126 -93 -171
-168 l-27 -47 0 -300 0 -300 27 -45 c38 -64 84 -111 153 -157 285 -192 791
-303 1380 -303 546 0 986 82 1300 243 77 40 117 68 177 127 109 107 110 115
106 463 -3 244 -5 276 -22 307 -112 208 -490 372 -1016 440 -132 17 -504 43
-550 38 -8 -1 -91 -5 -185 -9z"/>
<path d="M1082 3220 c3 -409 3 -416 26 -457 35 -67 81 -112 173 -173 199 -131
515 -225 909 -270 199 -22 470 -34 568 -25 l72 8 0 410 0 410 -89 -6 c-198
-13 -624 23 -863 72 -411 85 -701 236 -779 404 l-19 42 2 -415z"/>
<path d="M1083 2115 c2 -419 2 -420 25 -464 108 -201 507 -368 1043 -436 172
-21 464 -36 582 -28 l97 6 0 409 0 408 -203 0 c-492 0 -946 85 -1242 232 -174
86 -248 153 -292 263 -9 24 -12 -55 -10 -390z"/>
<path d="M3050 2134 c0 -486 -3 -472 108 -582 63 -62 91 -81 205 -137 211
-103 483 -173 822 -212 219 -24 676 -24 890 1 502 59 882 195 1044 372 81 88
82 94 79 554 -3 385 -3 394 -20 356 -81 -178 -375 -328 -818 -416 -248 -49
-422 -64 -740 -63 -373 0 -638 31 -920 104 -342 90 -582 237 -636 388 -11 31
-13 -25 -14 -365z"/>
<path d="M6172 1371 c-41 -90 -129 -165 -288 -244 -499 -250 -1474 -307 -2171
-126 -345 90 -574 223 -644 374 -18 40 -19 37 -19 -355 0 -239 4 -410 10 -432
52 -186 368 -358 820 -447 611 -120 1369 -79 1855 100 269 100 426 222 455
354 7 33 10 183 8 438 l-3 387 -23 -49z"/>
</g>
</svg>
