<?xml version="1.0" standalone="no"?>
<!DOCTYPE svg PUBLIC "-//W3C//DTD SVG 20010904//EN"
 "http://www.w3.org/TR/2001/REC-SVG-20010904/DTD/svg10.dtd">
<svg version="1.0" xmlns="http://www.w3.org/2000/svg"
 width="1920.000000pt" height="1920.000000pt" viewBox="0 0 1920.000000 1920.000000"
 preserveAspectRatio="xMidYMid meet">

<g transform="translate(0.000000,1920.000000) scale(0.100000,-0.100000)"
fill="#5540af" stroke="none">
<path d="M12255 17413 c-1901 -82 -3446 -720 -3820 -1578 -19 -44 -42 -110
-52 -147 l-17 -68 -3076 -3 c-2879 -3 -3080 -4 -3160 -20 -372 -77 -700 -291
-906 -593 -102 -148 -161 -280 -212 -469 l-27 -100 -3 -4525 c-2 -4931 -6
-4577 53 -4785 34 -121 140 -331 219 -436 79 -105 232 -252 329 -317 183 -123
329 -183 569 -234 38 -9 843 -13 2923 -17 l2870 -6 36 -85 c128 -300 189 -592
190 -901 0 -300 -54 -556 -181 -856 l-44 -103 -425 0 c-392 0 -429 -2 -466
-19 -147 -67 -148 -285 -2 -352 41 -18 107 -19 2545 -19 2237 0 2507 2 2540
15 161 68 161 292 0 360 -32 13 -101 15 -462 15 l-424 0 -50 122 c-139 339
-193 646 -172 968 19 278 73 492 213 832 l11 28 2821 0 c2389 0 2836 3 2925
15 331 45 604 185 837 429 196 204 321 455 368 739 14 82 15 582 13 4607 -3
4311 -4 4518 -21 4590 -83 345 -267 631 -536 833 -166 126 -397 228 -585 260
l-79 13 -18 71 c-91 359 -414 718 -901 999 -718 415 -1737 671 -2923 734 -170
9 -720 11 -900 3z m1035 -403 c385 -28 775 -80 1092 -145 1108 -228 1918 -659
2167 -1154 223 -442 -87 -921 -839 -1297 -1377 -689 -3744 -801 -5423 -258
-568 184 -990 414 -1263 688 -196 198 -284 376 -284 579 0 196 80 364 265 556
163 169 363 308 645 450 666 332 1556 536 2580 591 203 11 863 5 1060 -10z
m-4947 -3957 c3 -1987 5 -2184 20 -2244 86 -348 300 -633 676 -903 592 -425
1584 -742 2666 -850 362 -37 458 -41 965 -41 527 0 659 6 1030 46 1537 166
2732 695 3153 1396 51 84 92 176 124 280 l28 88 3 2188 c2 2133 3 2187 21
2187 27 0 138 -36 207 -66 72 -32 183 -103 252 -162 130 -111 261 -323 314
-507 l23 -80 3 -4483 c2 -4353 2 -4486 -17 -4575 -80 -396 -382 -700 -786
-793 -78 -18 -307 -19 -7435 -19 l-7355 0 -97 27 c-191 53 -341 139 -473 272
-134 135 -218 282 -268 470 l-22 81 0 4505 0 4505 22 85 c47 178 183 399 315
512 165 141 371 229 577 248 47 4 1428 8 3068 9 l2983 1 3 -2177z m568 1365
c991 -793 3004 -1167 4954 -923 1168 147 2153 520 2693 1019 l62 58 0 -719 c0
-765 1 -750 -49 -884 -33 -88 -135 -232 -235 -334 -546 -550 -1728 -935 -3120
-1015 -230 -13 -857 -13 -1079 0 -870 52 -1635 214 -2261 477 -541 228 -926
530 -1072 840 -65 137 -64 124 -64 918 l0 719 58 -56 c31 -30 82 -75 113 -100z
m90 -2276 c1313 -973 4232 -1227 6260 -544 547 184 955 407 1287 700 l73 64
-3 -743 c-3 -743 -3 -744 -26 -803 -57 -151 -138 -270 -273 -403 -110 -107
-171 -156 -320 -253 -370 -243 -924 -453 -1534 -585 -987 -213 -2248 -234
-3282 -55 -1052 183 -1873 550 -2249 1006 -70 84 -119 169 -157 266 l-32 83
-3 743 -3 743 85 -75 c46 -41 126 -106 177 -144z m1826 -8034 c-3 -7 -28 -80
-55 -163 -97 -290 -135 -525 -134 -820 0 -288 38 -511 133 -798 27 -81 49
-150 49 -152 0 -3 -549 -5 -1220 -5 -697 0 -1220 4 -1220 9 0 5 15 51 34 102
211 584 198 1207 -39 1822 -7 16 56 17 1225 17 981 0 1231 -3 1227 -12z"/>
<path d="M2645 13701 c-45 -11 -69 -26 -103 -65 -28 -33 -52 -89 -52 -126 0
-37 24 -93 52 -126 64 -73 20 -69 733 -69 713 0 669 -4 733 69 28 33 52 89 52
126 0 37 -24 93 -52 126 -64 73 -23 69 -713 71 -341 1 -633 -2 -650 -6z"/>
<path d="M5035 13701 c-54 -14 -95 -41 -123 -83 -23 -35 -27 -52 -27 -108 0
-56 4 -73 28 -108 15 -23 46 -52 70 -64 l42 -23 1165 0 c1077 0 1167 1 1196
17 61 34 114 116 114 178 0 62 -53 144 -114 178 -29 16 -119 17 -1176 19 -630
0 -1158 -2 -1175 -6z"/>
<path d="M5470 12144 c-36 -16 -85 -57 -100 -85 -5 -8 -77 -269 -160 -580 -83
-310 -243 -907 -356 -1326 -112 -419 -204 -775 -204 -791 0 -15 12 -52 26 -80
27 -55 78 -94 141 -107 67 -14 167 34 199 97 9 17 69 229 134 472 65 242 225
839 355 1325 260 971 252 930 195 1009 -52 72 -151 100 -230 66z"/>
<path d="M3907 11966 c-20 -7 -46 -20 -57 -27 -85 -60 -1393 -1141 -1411
-1167 -15 -23 -24 -52 -27 -90 -7 -110 -33 -85 743 -720 385 -316 714 -580
732 -588 38 -17 110 -18 150 -3 66 25 122 109 123 184 0 93 1 92 -640 616
-327 268 -595 491 -597 495 -1 5 265 227 591 494 327 266 604 500 617 519 19
28 24 47 24 101 0 56 -4 73 -28 108 -46 70 -145 106 -220 78z"/>
<path d="M6385 11971 c-90 -22 -145 -86 -153 -176 -9 -107 -26 -90 633 -630
327 -267 597 -490 600 -494 2 -5 -264 -229 -592 -497 -439 -360 -603 -500
-620 -529 -47 -82 -20 -197 58 -251 50 -34 135 -44 189 -20 19 8 350 273 735
588 754 618 745 609 745 703 -1 52 -29 112 -71 151 -70 64 -1363 1117 -1393
1134 -38 22 -91 30 -131 21z"/>
<path d="M2625 7848 c-164 -58 -179 -280 -24 -358 37 -20 70 -20 1674 -20
1351 0 1641 2 1668 14 41 17 91 74 107 121 27 80 -12 180 -87 226 l-38 24
-1635 2 c-1125 1 -1644 -2 -1665 -9z"/>
<path d="M6915 7845 c-50 -17 -112 -86 -121 -132 -18 -94 23 -185 98 -222 44
-21 53 -21 668 -21 615 0 624 0 668 21 26 13 54 38 70 62 23 35 27 51 27 113
0 66 -3 76 -31 111 -17 21 -46 47 -65 58 -33 19 -54 20 -654 22 -514 2 -627 0
-660 -12z"/>
<path d="M10200 7847 c-72 -23 -130 -109 -130 -192 0 -44 39 -114 83 -149 l39
-31 639 -3 c620 -2 640 -2 678 17 144 74 144 273 -1 345 l-52 26 -610 -1
c-414 -1 -622 -5 -646 -12z"/>
<path d="M12470 7844 c-77 -33 -123 -100 -123 -179 0 -80 39 -143 110 -179 30
-15 208 -16 2116 -14 l2084 3 37 29 c123 94 108 269 -28 332 l-51 24 -2055 0
c-1814 -1 -2059 -3 -2090 -16z"/>
<path d="M2605 6406 c-43 -18 -92 -78 -105 -127 -22 -82 17 -177 92 -219 l43
-25 1197 0 1196 0 44 30 c116 81 116 252 0 326 l-46 29 -1195 0 c-966 -1
-1202 -3 -1226 -14z"/>
<path d="M6092 6404 c-96 -48 -136 -169 -87 -265 21 -40 80 -87 124 -99 27 -7
914 -9 2857 -8 l2819 3 45 27 c61 35 94 95 95 168 0 65 -22 108 -78 154 l-39
31 -2851 2 c-2605 2 -2855 1 -2885 -13z"/>
<path d="M13125 6406 c-43 -19 -92 -78 -105 -127 -22 -82 17 -177 92 -219 l43
-25 530 -3 c367 -2 544 1 575 8 163 41 204 252 68 346 l-41 29 -566 2 c-453 2
-572 0 -596 -11z"/>
<path d="M15505 6405 c-80 -40 -127 -142 -105 -226 16 -57 81 -123 137 -138
30 -8 203 -11 582 -9 l539 3 44 30 c116 81 116 252 0 326 l-46 29 -560 0
c-480 0 -565 -2 -591 -15z"/>
</g>
</svg>
