<?xml version="1.0" standalone="no"?>
<!DOCTYPE svg PUBLIC "-//W3C//DTD SVG 20010904//EN"
 "http://www.w3.org/TR/2001/REC-SVG-20010904/DTD/svg10.dtd">
<svg version="1.0" xmlns="http://www.w3.org/2000/svg"
 width="2260.000000pt" height="2048.000000pt" viewBox="0 0 2260.000000 2048.000000"
 preserveAspectRatio="xMidYMid meet">

<g transform="translate(0.000000,2048.000000) scale(0.100000,-0.100000)"
fill="#5540af" stroke="none">
<path d="M9876 20470 c-1072 -70 -2068 -403 -2946 -985 -755 -500 -1371 -1146
-1844 -1935 -98 -162 -287 -535 -360 -710 -162 -384 -290 -802 -365 -1195
l-27 -140 -40 1 c-21 1 -127 5 -234 11 -659 33 -1278 -92 -1865 -376 -1220
-591 -2022 -1731 -2176 -3091 -20 -176 -17 -640 5 -825 63 -527 216 -1004 466
-1450 563 -1007 1539 -1710 2670 -1924 310 -58 229 -56 2005 -56 l1630 0 47
23 c62 31 121 89 155 154 24 46 28 64 28 143 0 73 -4 98 -23 136 -36 74 -87
125 -160 161 l-67 33 -1605 6 c-1431 5 -1617 7 -1715 22 -609 93 -1100 300
-1565 661 -135 105 -424 391 -530 526 -152 194 -301 433 -392 630 -408 879
-407 1860 2 2736 215 459 580 901 1003 1215 392 290 886 499 1367 578 212 35
365 44 614 38 228 -6 335 -17 546 -58 89 -16 119 -18 164 -10 109 20 197 85
246 181 14 28 30 105 51 247 115 790 365 1475 775 2126 595 942 1486 1681
2525 2095 1039 414 2167 490 3258 221 721 -178 1391 -503 1988 -966 177 -137
290 -237 477 -421 339 -335 612 -685 859 -1103 111 -187 166 -237 291 -260 44
-8 76 -5 182 15 363 71 678 80 1007 31 495 -74 984 -288 1367 -599 107 -86
299 -275 392 -384 345 -409 564 -902 643 -1447 22 -152 38 -196 95 -259 78
-85 132 -104 315 -111 266 -10 467 -38 682 -95 473 -126 895 -366 1252 -715
163 -159 275 -294 396 -475 584 -875 629 -2032 114 -2951 -461 -824 -1287
-1365 -2228 -1459 -68 -7 -1097 -10 -3027 -10 l-2924 0 2 757 3 756 71 31
c119 52 202 107 299 198 150 142 248 305 303 506 l27 97 0 2275 0 2275 -27
100 c-108 396 -411 685 -803 766 -86 18 -182 19 -2330 19 -2148 0 -2244 -1
-2330 -19 -194 -40 -362 -129 -507 -269 -189 -182 -293 -398 -318 -660 -14
-146 -14 -4278 0 -4424 36 -374 257 -691 595 -849 46 -22 88 -39 94 -39 8 0
11 -213 11 -759 l0 -759 -227 -4 c-226 -3 -229 -3 -285 -31 -74 -36 -151 -120
-173 -188 -52 -157 13 -325 157 -405 l53 -29 238 -3 237 -3 0 -735 0 -734
-1108 0 -1108 0 -39 87 c-173 385 -536 623 -950 623 -510 0 -939 -366 -1026
-874 -17 -99 -6 -321 19 -418 80 -297 285 -548 557 -679 278 -134 614 -135
892 -4 217 102 413 303 508 522 l34 78 1110 3 1111 2 0 -760 c0 -618 -2 -760
-13 -760 -7 0 -50 -18 -95 -40 -336 -162 -557 -476 -591 -838 -32 -346 111
-687 379 -905 97 -78 264 -165 379 -196 115 -32 262 -44 372 -32 266 30 475
134 657 326 416 441 366 1139 -109 1518 -76 61 -211 139 -287 165 l-32 11 2
1818 3 1818 730 0 730 0 3 -2877 2 -2878 -95 -44 c-131 -61 -220 -123 -311
-214 -134 -135 -227 -298 -275 -480 -29 -109 -36 -309 -15 -428 71 -410 376
-734 783 -836 72 -18 116 -22 243 -22 135 1 168 4 253 27 393 105 689 420 763
813 22 122 15 346 -15 459 -49 182 -181 394 -319 514 -78 67 -215 152 -291
181 l-61 22 0 2884 0 2884 728 -2 727 -3 0 -1819 0 -1819 -77 -32 c-204 -86
-388 -256 -506 -466 -45 -79 -99 -249 -113 -354 -31 -239 34 -513 170 -714
212 -312 599 -494 963 -451 405 47 734 301 869 671 50 137 62 209 62 369 0
124 -4 159 -27 245 -82 314 -304 573 -600 701 l-71 31 -3 756 -2 757 1115 0
c909 0 1115 -2 1115 -13 0 -7 18 -50 40 -95 192 -398 598 -631 1030 -591 279
26 538 164 713 379 79 98 166 265 196 380 101 373 -8 756 -290 1024 -149 142
-307 225 -510 267 -186 38 -411 17 -589 -54 -159 -65 -312 -179 -421 -315 -62
-77 -140 -213 -167 -290 l-11 -32 -1110 0 -1111 0 0 735 0 735 2953 0 c3174 0
3055 -2 3347 50 1358 242 2458 1268 2794 2608 124 496 138 1038 40 1532 -213
1065 -897 1966 -1869 2460 -370 189 -758 305 -1184 354 -123 14 -140 21 -141
56 0 28 -69 284 -105 395 -348 1047 -1181 1880 -2225 2225 -230 76 -456 125
-710 156 -175 22 -591 24 -745 5 -55 -7 -123 -15 -151 -18 l-50 -5 -79 122
c-441 687 -1042 1295 -1735 1755 -823 545 -1749 871 -2760 970 -183 18 -720
27 -904 15z m3346 -4932 c117 -55 198 -163 218 -294 7 -47 10 -737 8 -2219
l-3 -2150 -24 -58 c-37 -93 -94 -156 -185 -202 l-79 -40 -938 -3 -939 -2 0
374 0 375 573 4 c405 2 582 7 607 15 60 20 127 69 165 119 68 92 66 63 63 929
l-3 779 -27 50 c-59 112 -156 176 -278 183 -60 3 -86 0 -132 -18 -75 -28 -150
-96 -185 -168 l-28 -57 -3 -582 -3 -583 -1084 0 -1085 0 2 1083 3 1082 1295 5
1295 5 50 24 c110 55 175 155 183 281 8 139 -58 249 -186 312 l-67 33 -1490 0
-1490 0 -67 -33 c-73 -36 -123 -86 -160 -161 l-23 -46 -3 -1479 c-3 -1628 -6
-1531 59 -1629 34 -52 94 -98 161 -125 38 -15 107 -17 621 -20 l577 -3 -2
-372 -3 -372 -940 0 -940 0 -65 31 c-80 38 -149 105 -187 182 l-28 57 0 2225
0 2225 27 57 c46 98 150 184 252 209 17 4 1021 6 2231 6 l2200 -2 57 -27z
m-2604 -6360 l2 -728 -735 0 -735 0 0 730 0 730 733 -2 732 -3 3 -727z m2122
2 l0 -730 -730 0 -730 0 0 730 0 730 730 0 730 0 0 -730z m-7297 -2848 c80
-37 142 -100 181 -182 28 -59 31 -74 31 -160 -1 -84 -4 -102 -30 -155 -36 -76
-109 -149 -183 -183 -50 -24 -69 -27 -157 -27 -90 0 -106 3 -160 29 -173 85
-255 278 -195 456 42 124 142 218 267 250 68 17 177 5 246 -28z m11278 18
c324 -101 350 -553 41 -698 -50 -24 -70 -27 -157 -27 -89 0 -106 3 -156 27
-76 38 -146 109 -183 188 -27 57 -31 76 -30 150 0 106 26 178 91 250 104 116
247 156 394 110z m-7759 -2840 c80 -30 159 -104 200 -188 29 -59 33 -76 33
-152 0 -172 -88 -302 -243 -361 -47 -17 -73 -20 -147 -17 -79 3 -98 8 -153 37
-75 41 -135 103 -170 179 -24 50 -27 70 -27 157 0 89 3 106 28 157 49 99 149
181 254 208 56 14 160 5 225 -20z m4238 4 c151 -59 242 -192 242 -354 0 -103
-28 -174 -97 -248 -74 -80 -145 -114 -251 -120 -102 -5 -173 14 -242 66 -105
79 -155 175 -156 302 -1 130 56 238 164 312 99 68 233 84 340 42z m-2136
-2121 c96 -29 178 -103 225 -203 22 -47 26 -69 26 -150 0 -84 -3 -102 -29
-158 -20 -43 -47 -80 -87 -116 -191 -177 -486 -116 -597 122 -23 49 -27 70
-27 152 1 83 4 102 28 151 57 119 166 201 284 218 68 9 109 5 177 -16z"/>
</g>
</svg>
