<svg width="141" height="39" viewBox="0 0 141 39" fill="none" xmlns="http://www.w3.org/2000/svg">
<g clip-path="url(#clip0_1474_4278)">
<path d="M42.6958 12.0513V6.27055H69.2864V12.0513H59.4453V28.6136H52.5726V12.0513H42.6958ZM100.971 17.4621C100.971 22.8997 100.316 26.1489 99.0014 27.2096C97.5885 28.3551 93.3187 28.9256 86.1963 28.9256C80.9905 28.9256 77.572 28.7384 75.9452 28.3596C73.9039 27.8827 72.6158 26.8397 72.0765 25.2396C71.6575 24.0095 71.4525 21.4155 71.4525 17.4577C71.4525 12.0201 72.0988 8.77094 73.3913 7.71017C74.8042 6.54243 79.074 5.9541 86.2008 5.9541C93.3053 5.9541 97.5617 6.52906 98.9791 7.67897C100.303 8.76203 100.971 12.0246 100.971 17.4621ZM78.3208 17.4621C78.3208 20.3146 78.6551 21.9682 79.3191 22.4273C79.9654 22.9042 82.2563 23.1448 86.1919 23.1448C90.1497 23.1448 92.4584 22.9042 93.127 22.4273C93.7733 21.9682 94.0942 20.3146 94.0942 17.4621C94.0942 14.5829 93.7733 12.9071 93.127 12.4257C92.4807 11.9666 90.1809 11.7393 86.2231 11.7393C82.2652 11.7393 79.9654 11.9666 79.3191 12.4257C78.6551 12.9026 78.3208 14.5829 78.3208 17.4621ZM116.477 6.33741C116.477 6.33741 122.78 20.6578 122.882 20.6578C122.962 20.6578 129.287 6.33741 129.287 6.33741H141V28.6403H134.127C134.127 28.6403 134.377 11.0797 134.247 11.0797C134.167 11.0797 125.69 28.6403 125.69 28.6403H120.061C120.061 28.6403 110.964 11.0217 110.879 11.0217C110.755 11.0217 111.009 28.6403 111.009 28.6403H104.131V6.33741H116.477Z" fill="#036BA5"/>
<path d="M0 8.80176V28.4135L5.12821 31.6259V21.3402L15.7509 27.0801V21.212L5.12821 15.2303V11.6076L0 8.80176Z" fill="#2890CF"/>
<path d="M0.0185547 8.80188L8.05152 4.30371L13.1541 6.90444L5.16141 11.6077L0.0185547 8.80188Z" fill="#036BA5"/>
<path d="M15.751 38.1466L33.9598 28.154L33.8865 22.4653L24.7107 27.5386L24.5202 15.4873L19.403 18.3518L19.381 30.154L15.7583 32.3005L15.751 38.1466Z" fill="#2890CF"/>
<path d="M15.7511 38.1471L8.43973 33.5171L8.3042 27.6709L15.7584 32.3009L15.7511 38.1471Z" fill="#036BA5"/>
<path d="M33.9119 8.90843L15.7508 0L10.879 2.72161L20.4431 7.41758L9.61523 13.7033L15.0731 16.5861L25.802 10.3443L28.8167 11.9194L33.9119 8.90843Z" fill="#2890CF"/>
<path d="M33.8828 8.92676L28.8169 11.9194L28.9085 21.3187L33.8828 18.5385V8.92676Z" fill="#036BA5"/>
</g>
<defs>
<clipPath id="clip0_1474_4278">
<rect width="141" height="39" fill="white"/>
</clipPath>
</defs>
</svg>
